<svg width="30" height="30" viewBox="0 0 30 30" fill="none" xmlns="http://www.w3.org/2000/svg">
<path d="M22.0833 2.73168C24.237 3.97507 26.0253 5.76345 27.2687 7.91708C28.5121 10.0707 29.1667 12.5137 29.1667 15.0005C29.1667 17.4872 28.512 19.9302 27.2686 22.0838C26.0252 24.2374 24.2368 26.0258 22.0832 27.2692C19.9296 28.5125 17.4866 29.1671 14.9998 29.167C12.513 29.167 10.07 28.5124 7.91644 27.2689C5.76285 26.0255 3.9745 24.2371 2.73116 22.0834C1.48782 19.9298 0.83328 17.4868 0.833344 15L0.840427 14.541C0.919765 12.0944 1.6317 9.71012 2.90683 7.62058C4.18196 5.53105 5.97677 3.80757 8.11627 2.61818C10.2558 1.42879 12.667 0.814072 15.1148 0.833964C17.5626 0.853855 19.9635 1.50767 22.0833 2.73168ZM15 6.50001C14.6243 6.50001 14.264 6.64927 13.9983 6.91494C13.7326 7.18062 13.5833 7.54095 13.5833 7.91668C12.4562 7.91668 11.3752 8.36444 10.5781 9.16147C9.78111 9.9585 9.33334 11.0395 9.33334 12.1667C9.33334 13.2938 9.78111 14.3749 10.5781 15.1719C11.3752 15.9689 12.4562 16.4167 13.5833 16.4167V19.25C13.3485 19.2625 13.1141 19.2178 12.9003 19.1195C12.6866 19.0213 12.5 18.8726 12.3565 18.6862L12.2602 18.5431C12.0664 18.2305 11.7586 18.0056 11.4019 17.9158C11.0452 17.8261 10.6676 17.8786 10.3489 18.0622C10.0302 18.2458 9.79545 18.5462 9.69422 18.8998C9.593 19.2534 9.63327 19.6325 9.80651 19.9569C10.1681 20.584 10.6839 21.1084 11.3049 21.4803C11.926 21.8522 12.6317 22.0593 13.3553 22.0819H13.5833C13.583 22.4292 13.7103 22.7644 13.9409 23.024C14.1715 23.2836 14.4894 23.4495 14.8343 23.4901L15 23.5C15.3757 23.5 15.7361 23.3508 16.0017 23.0851C16.2674 22.8194 16.4167 22.4591 16.4167 22.0833L16.666 22.0763C17.7705 22.0124 18.8065 21.5205 19.5539 20.7049C20.3014 19.8893 20.7014 18.8144 20.6689 17.7086C20.6365 16.6028 20.1741 15.5533 19.3801 14.7829C18.5861 14.0126 17.523 13.5823 16.4167 13.5833V10.75C16.9238 10.733 17.3673 10.9483 17.6435 11.3138L17.7398 11.4569C17.9337 11.7695 18.2415 11.9945 18.5982 12.0842C18.9548 12.174 19.3324 12.1215 19.6511 11.9378C19.9698 11.7542 20.2046 11.4538 20.3058 11.1002C20.407 10.7466 20.3668 10.3675 20.1935 10.0431C19.8321 9.41572 19.3164 8.89108 18.6953 8.51894C18.0743 8.1468 17.3684 7.93949 16.6448 7.91668H16.4167C16.4167 7.54095 16.2674 7.18062 16.0017 6.91494C15.7361 6.64927 15.3757 6.50001 15 6.50001ZM16.4167 16.4167C16.7924 16.4167 17.1527 16.5659 17.4184 16.8316C17.6841 17.0973 17.8333 17.4576 17.8333 17.8333C17.8333 18.2091 17.6841 18.5694 17.4184 18.8351C17.1527 19.1008 16.7924 19.25 16.4167 19.25V16.4167ZM13.5833 10.75V13.5833C13.2076 13.5833 12.8473 13.4341 12.5816 13.1684C12.3159 12.9027 12.1667 12.5424 12.1667 12.1667C12.1667 11.791 12.3159 11.4306 12.5816 11.1649C12.8473 10.8993 13.2076 10.75 13.5833 10.75Z" fill="#65C3C8"/>
</svg>
